<?xml version="1.0" encoding="UTF-8"?>
<svg id="Layer_1" xmlns="http://www.w3.org/2000/svg" version="1.1" viewBox="0 0 600 600">
  <!-- Generator: Adobe Illustrator 29.3.1, SVG Export Plug-In . SVG Version: 2.1.0 Build 151)  -->
  <defs>
    <style>
      .st0 {
        fill: #fff;
      }
    </style>
  </defs>
  <path class="st0" d="M467.1,62.6c70.4,48.4,115.3,129.1,124.3,213.4,12.4,115.3-53.6,230.5-155.7,283.9-107.6,56.2-243,38.8-332.5-42.4-1.9-1.7-10.2-9.6-10.9-10.8s-1-1.8-.8-2.9c.3-1.2,10.5-5.6,12.4-6.4,55.8-21.9,93.5,14.5,137.1,41.1,44.6,27.2,87.6,30.2,135.5,8.2l14-7.2c-1.1-2.6-8.1,1-10.2,1.2-72,8.6-127.3-59.6-189.1-83.5-40.1-15.5-89.2-10.6-124.5,14.4-1,.7-.2,2.5-2.9,1l-14-20.4c-1.8-5.1-10.6-14.8-8.9-20s31.3-20.9,36.2-23.3c17.2-8.5,40.6-16.3,59.6-17.9,52.8-4.4,90.6,32.5,132.1,58.1,57.9,35.8,124.6,53.5,191.3,30.3,13.7-4.8,20.8-8.1,29.8-19.6,11-14.1,23.2-34.4,31.7-50.2.6-1.2,3.8-6.4,3-7.2-1.3-.2-2.2.6-3.2,1.3-23.9,15.5-45.6,30.7-74.1,37.7-60.7,15-107.2.3-158.5-32.5-19.3-12.3-37.2-26.9-57.3-38.1-57.2-31.9-113.8-28.3-170.1,3.6-12.8,7.3-24.7,16-36.5,24.7-2.4-.6-5-13.6-6.7-16.1l-6.8-27.2c13.1-12.3,26.8-24,41.4-34.6,35.7-25.9,69.3-39.4,115.1-36,41.8,3.1,95.1,50.8,130.7,73.3,58.9,37.1,124.7,48.6,190,19.9,21.4-9.4,40.7-22.7,58.4-37.8.9-1.9.1-4,.6-5.9,2.6-9.9,4.9-20.1,6.3-30.4.2-1.8,2.1-12.5-2.3-10-.4,1.3-1,2.3-2.1,3.1-49.9,39.3-106.8,67.5-171.9,49.1-46.9-13.3-83.7-47.4-123.4-73.4-7.9-5.2-17.9-9.7-25.4-15.2-1.1-.8-2.1-1.7-3-2.8l-.3-58.8.7-1c36.7-7.6,41.8-59.1,11.1-77.7-49.9-30.2-93.8,43.8-44.5,74.3,1.9,1.2,6.5,1.9,7.2,4.3s-.7,3.7-.7,5.5c-.3,15-.3,30.3.9,45.2-1.1,1.1-10.8-2.8-12.7-3.2-63.3-13.4-118.5,18.4-164.8,56.9s-13.9,14.4-16.2,12.2l.8-45.1C18.4,168.5,82.8,78.9,173.9,36.4,269.9-8.3,380.6,3,467.1,62.6ZM360.9,83.8c-33.6-35-93.7,5.1-69,51.1,4.2,7.8,13,16.4,22,18l.7,1v75.6c3.8,28.7,35.8,49.7,60.8,59.9,18.2,7.4,37.9,7.1,55.7,16.1,4.7,2.4,10.2,6.1,13.9,9.8,3.4-2,1.2-4,1.4-6.1,1.8-25.5,1.7-56.4.7-82.2-.1-2.7-1.3-5.3-.9-8,10.8-2.8,19.3-8.8,24.9-18.5,10.4-18.2,6.5-41-9.3-54.8-33.8-29.6-84.4,7-68.4,48.6,4.4,11.4,14.8,21.6,26.7,24.8v53.9c-2.6,1-3.8-1.5-5-2-6.7-2.4-14.9-2.8-21.6-4.6-13.8-3.6-42.4-18.1-48.8-31.1-6.1-12.4-2.6-49.9-2.5-65.2,0-2.9-2-13.9.2-15.5,1.4-1,6.6-1.8,8.6-2.8,24.7-11.5,27.7-49.4,9.8-68Z"/>
  <ellipse class="st0" cx="214.4" cy="154.4" rx="17.1" ry="17"/>
  <g>
    <path d="M346.6,113.8c0-9.4-7.6-17-17.1-17s-17.1,7.6-17.1,17,7.6,17,17.1,17,17.1-7.6,17.1-17ZM450.7,178.3c0-9.3-7.6-16.9-17-16.9s-17,7.6-17,16.9,7.6,16.9,17,16.9,17-7.6,17-16.9Z"/>
    <ellipse class="st0" cx="329.5" cy="113.8" rx="17.1" ry="17"/>
    <ellipse class="st0" cx="433.8" cy="178.3" rx="17" ry="16.9"/>
  </g>
</svg>